<svg width="150" height="28" viewBox="0 0 150 28" fill="none" xmlns="http://www.w3.org/2000/svg">
<g clip-path="url(#clip0_680_3772)">
<mask id="mask0_680_3772" style="mask-type:luminance" maskUnits="userSpaceOnUse" x="0" y="0" width="150" height="27">
<path d="M150 0.764709H0V26.7387H150V0.764709Z" fill="white"/>
</mask>
<g mask="url(#mask0_680_3772)">
<path fill-rule="evenodd" clip-rule="evenodd" d="M16.0485 20.0285C14.9247 21.9966 14.9734 24.3236 15.9756 26.1824C16.105 26.4224 15.9417 26.7321 15.6715 26.7321H7.55382C3.38196 26.7321 0 23.3127 0 19.0946C0 14.8766 3.38196 11.4572 7.55382 11.4572C7.76449 11.4572 7.97315 11.4659 8.17945 11.4829C8.33481 11.4959 8.45647 11.621 8.47565 11.7776C8.67474 13.4022 8.95666 14.3695 9.18425 14.9266C9.25339 15.0958 9.36971 15.0375 9.32064 14.8611C9.12226 14.149 8.87954 12.9825 8.89663 11.5786L8.89773 11.5777L8.89885 11.5768C9.01468 5.58548 13.8544 0.764709 19.8077 0.764709C22.8528 0.764709 25.6066 2.02587 27.5858 4.05974C27.7799 4.25928 27.6479 4.59394 27.3756 4.64371C25.6396 4.96093 24.0477 6.01982 23.0966 7.68578L16.0485 20.0285Z" fill="#079C71"/>
<path d="M34.0528 26.7321C36.4615 26.7321 38.4142 24.7564 38.4142 22.3192C38.4142 19.8822 36.4615 17.9065 34.0528 17.9065C31.6441 17.9065 29.6914 19.8822 29.6914 22.3192C29.6914 24.7564 31.6441 26.7321 34.0528 26.7321Z" fill="#079C71"/>
<path d="M18.3671 21.3745C17.3943 23.0793 17.9716 25.2591 19.6565 26.2433C21.3413 27.2275 23.4957 26.6434 24.4684 24.9387L31.5137 12.5921C32.4865 10.8874 31.9092 8.70756 30.2243 7.72334C28.5395 6.73913 26.3851 7.3232 25.4124 9.02792L18.3671 21.3745Z" fill="#079C71"/>
<path d="M60.7304 10.5351V8.44336H65.2506V26.1702H60.7304V24.0784C59.3755 25.8037 57.4716 26.6665 55.0187 26.6665C52.6827 26.6665 50.6737 25.7683 48.9917 23.9721C47.3331 22.1521 46.5039 19.9303 46.5039 17.3068C46.5039 14.7068 47.3331 12.497 48.9917 10.677C50.6737 8.85699 52.6827 7.94702 55.0187 7.94702C57.4716 7.94702 59.3755 8.80972 60.7304 10.5351ZM52.3907 20.923C53.3017 21.8448 54.4581 22.3057 55.8597 22.3057C57.2614 22.3057 58.4176 21.8448 59.3287 20.923C60.2631 19.9777 60.7304 18.7722 60.7304 17.3068C60.7304 15.8413 60.2631 14.6477 59.3287 13.726C58.4176 12.7806 57.2614 12.3078 55.8597 12.3078C54.4581 12.3078 53.3017 12.7806 52.3907 13.726C51.4796 14.6477 51.0241 15.8413 51.0241 17.3068C51.0241 18.7722 51.4796 19.9777 52.3907 20.923ZM73.3824 13.4778C73.3824 14.2341 74.4454 14.884 76.5712 15.4278C77.3187 15.5931 77.9962 15.7941 78.6035 16.0304C79.2109 16.2431 79.8183 16.5623 80.4256 16.9877C81.0564 17.3895 81.5469 17.933 81.8973 18.6185C82.2477 19.304 82.4229 20.0958 82.4229 20.9939C82.4229 22.8139 81.7456 24.2202 80.3906 25.2129C79.0357 26.182 77.3655 26.6665 75.3798 26.6665C71.7822 26.6665 69.3294 25.2602 68.0213 22.4476L71.9458 20.2139C72.4831 21.7503 73.6277 22.5184 75.3798 22.5184C76.9916 22.5184 77.7975 22.0102 77.7975 20.9939C77.7975 20.2376 76.7347 19.5877 74.6089 19.044C73.8146 18.8313 73.1371 18.6185 72.5766 18.4058C72.0159 18.1931 71.4085 17.8859 70.7544 17.484C70.1004 17.0586 69.598 16.5268 69.2476 15.8886C68.9207 15.2269 68.757 14.4586 68.757 13.5841C68.757 11.8351 69.3878 10.4642 70.6493 9.47152C71.9342 8.45518 73.5226 7.94702 75.4148 7.94702C76.8399 7.94702 78.1364 8.27792 79.3043 8.93971C80.4723 9.57788 81.3951 10.4997 82.0725 11.7051L78.218 13.8324C77.6574 12.6269 76.723 12.0242 75.4148 12.0242C74.8309 12.0242 74.3403 12.166 73.9431 12.4496C73.5694 12.7096 73.3824 13.0524 73.3824 13.4778ZM94.8381 8.44336V12.8396H90.8787V20.2139C90.8787 20.8285 91.0306 21.2776 91.3342 21.5612C91.6379 21.8448 92.0818 22.0102 92.6658 22.0576C93.2498 22.0812 93.9743 22.0694 94.8381 22.0221V26.1702C91.7781 26.5247 89.5939 26.2411 88.2857 25.3193C87.0009 24.3738 86.3584 22.6721 86.3584 20.2139V12.8396H83.3099V8.44336H86.3584V4.86255L90.8787 3.47986V8.44336H94.8381ZM109.863 18.0158V8.44336H114.383V26.1702H109.863V24.1848C108.788 25.8392 107.047 26.6665 104.641 26.6665C102.726 26.6665 101.137 26.0165 99.8764 24.7166C98.6371 23.3929 98.019 21.5967 98.019 19.3277V8.44336H102.539V18.7604C102.539 19.9184 102.842 20.8167 103.45 21.4548C104.081 22.093 104.933 22.4121 106.008 22.4121C107.2 22.4121 108.134 22.0457 108.812 21.313C109.512 20.5567 109.863 19.4576 109.863 18.0158ZM128.545 8.44336V12.8396H124.585V20.2139C124.585 20.8285 124.737 21.2776 125.04 21.5612C125.344 21.8448 125.788 22.0102 126.371 22.0576C126.956 22.0812 127.68 22.0694 128.545 22.0221V26.1702C125.483 26.5247 123.3 26.2411 121.992 25.3193C120.708 24.3738 120.065 22.6721 120.065 20.2139V12.8396H117.016V8.44336H120.065V4.86255L124.585 3.47986V8.44336H128.545ZM146.111 23.9721C144.335 25.7683 142.14 26.6665 139.523 26.6665C136.908 26.6665 134.712 25.7683 132.936 23.9721C131.161 22.1758 130.273 19.9539 130.273 17.3068C130.273 14.6832 131.161 12.4732 132.936 10.677C134.735 8.85699 136.931 7.94702 139.523 7.94702C142.117 7.94702 144.313 8.85699 146.111 10.677C147.91 12.497 148.809 14.7068 148.809 17.3068C148.809 19.9303 147.91 22.1521 146.111 23.9721ZM136.124 20.8167C137.036 21.7384 138.169 22.1993 139.523 22.1993C140.878 22.1993 142.012 21.7384 142.922 20.8167C143.833 19.8949 144.289 18.7249 144.289 17.3068C144.289 15.8886 143.833 14.7186 142.922 13.7969C142.012 12.8751 140.878 12.4141 139.523 12.4141C138.169 12.4141 137.036 12.8751 136.124 13.7969C135.237 14.7423 134.793 15.9123 134.793 17.3068C134.793 18.7013 135.237 19.8713 136.124 20.8167Z" fill="#161C22"/>
</g>
</g>
<defs>
<clipPath id="clip0_680_3772">
<rect width="150" height="26.4706" fill="white" transform="translate(0 0.764709)"/>
</clipPath>
</defs>
</svg>
